<?xml version="1.0" encoding="UTF-8"?>
<svg xmlns="http://www.w3.org/2000/svg" xmlns:xlink="http://www.w3.org/1999/xlink" width="256pt" height="256pt" viewBox="0 0 256 256" version="1.1">
<g id="surface1">
<path style=" stroke:none;fill-rule:nonzero;fill:rgb(95.686275%,95.686275%,95.686275%);fill-opacity:1;" d="M 64 0 L 192 0 C 227.347656 0 256 28.652344 256 64 L 256 192 C 256 227.347656 227.347656 256 192 256 L 64 256 C 28.652344 256 0 227.347656 0 192 L 0 64 C 0 28.652344 28.652344 0 64 0 Z M 64 0 "/>
<path style=" stroke:none;fill-rule:nonzero;fill:rgb(93.72549%,49.019608%,34.117647%);fill-opacity:1;" d="M 256 64 L 255.992188 126.832031 L 0.0976562 195.398438 C 0.03125 194.273438 0 193.136719 0 192 L 0.0078125 129.167969 L 255.902344 60.601562 C 255.96875 61.726562 256 62.863281 256 64 Z M 256 64 "/>
<path style="fill-rule:nonzero;fill:rgb(95.686275%,95.686275%,95.686275%);fill-opacity:1;stroke-width:4;stroke-linecap:butt;stroke-linejoin:miter;stroke:rgb(93.72549%,49.019608%,34.117647%);stroke-opacity:1;stroke-miterlimit:4;" d="M 24.803223 16 C 24.803223 11.202637 20.861816 7.313965 16 7.313965 C 11.138184 7.313965 7.196777 11.202637 7.196777 16 C 7.196777 20.797363 11.138184 24.686035 16 24.686035 C 20.861816 24.686035 24.803223 20.797363 24.803223 16 Z M 24.803223 16 " transform="matrix(8,0,0,8,0.000000000000056843,0)"/>
<path style=" stroke:none;fill-rule:nonzero;fill:rgb(20%,20%,20%);fill-opacity:1;" d="M 113.039062 155.039062 L 102.320312 155.039062 L 102.320312 111.121094 L 92.078125 111.359375 L 92.078125 103.601562 L 113.039062 99.839844 Z M 113.039062 155.039062 "/>
<path style=" stroke:none;fill-rule:nonzero;fill:rgb(20%,20%,20%);fill-opacity:1;" d="M 158.078125 155.039062 L 125.519531 155.039062 L 125.519531 147.679688 L 140.558594 128.640625 C 142.535156 125.8125 143.945312 123.359375 144.800781 121.28125 C 145.707031 119.148438 146.160156 117.226562 146.160156 115.519531 C 146.160156 113.171875 145.707031 111.28125 144.800781 109.839844 C 143.894531 108.398438 142.558594 107.679688 140.800781 107.679688 C 139.039062 107.679688 137.679688 108.558594 136.71875 110.320312 C 135.8125 112.078125 135.359375 114.375 135.359375 117.199219 L 124.800781 117.199219 L 124.800781 116.960938 C 124.691406 111.945312 126.105469 107.707031 129.039062 104.238281 C 131.972656 100.773438 135.894531 99.039062 140.800781 99.039062 C 145.867188 99.039062 149.8125 100.507812 152.640625 103.441406 C 155.464844 106.375 156.878906 110.375 156.878906 115.441406 C 156.878906 118.800781 156.105469 121.921875 154.558594 124.800781 C 152.960938 127.679688 150.320312 131.441406 146.640625 136.078125 L 139.441406 146.398438 L 158.078125 146.398438 Z M 158.078125 155.039062 "/>
</g>
</svg>
